<?xml version="1.0" encoding="utf-8"?>
<!-- Generator: Adobe Illustrator 22.0.1, SVG Export Plug-In . SVG Version: 6.00 Build 0)  -->
<svg version="1.1" id="圖層_3" xmlns="http://www.w3.org/2000/svg" xmlns:xlink="http://www.w3.org/1999/xlink" x="0px" y="0px"
	 viewBox="0 0 240.6 387.4" style="enable-background:new 0 0 240.6 387.4;" xml:space="preserve">
<style type="text/css">
	.st0{fill:#FF00FF;}
</style>
<g>
	<path class="st0" d="M94.7,98.6c-1.3,0-2.5-0.5-3.5-1.4L55.6,61.6c-0.9-0.9-1.4-2.2-1.4-3.5c0-1.3,0.5-2.6,1.4-3.5L91.2,19
		c1.9-1.9,5.1-1.9,7,0l35.6,35.6c1.9,1.9,1.9,5.1,0,7L98.2,97.2C97.2,98.1,96,98.6,94.7,98.6z M66.1,58.1l28.6,28.6l28.6-28.6
		L94.7,29.5L66.1,58.1z"/>
	<path d="M116.4,367.5H69c-2.7,0-4.9-2.2-4.9-4.9V131.7c0-2.7,2.2-4.9,4.9-4.9h47.4c2.7,0,4.9,2.2,4.9,4.9v230.9
		C121.4,365.3,119.2,367.5,116.4,367.5z M73.9,357.6h37.6v-221H73.9V357.6z"/>
	<path d="M116.3,368.8H21.4c-2.7,0-4.9-2.2-4.9-4.9v-49.4c0-2.7,2.2-4.9,4.9-4.9h94.9c2.7,0,4.9,2.2,4.9,4.9v49.4
		C121.2,366.5,119,368.8,116.3,368.8z M26.4,358.9h85v-39.5h-85V358.9z"/>
	<path d="M211.3,203.3h-47.4c-2.7,0-4.9-2.2-4.9-4.9V91.5c0-2.7,2.2-4.9,4.9-4.9h47.4c2.7,0,4.9,2.2,4.9,4.9v106.8
		C216.2,201.1,214,203.3,211.3,203.3z M168.8,193.4h37.6v-97h-37.6V193.4z"/>
	<path d="M116.4,136.6H69c-2.3,0-4.4-1.7-4.8-4c-0.5-2.3,0.8-4.6,2.9-5.5L162,87c0.6-0.3,1.3-0.4,1.9-0.4h47.4c2.3,0,4.4,1.7,4.8,4
		c0.5,2.3-0.8,4.6-2.9,5.5l-94.9,40.2C117.8,136.5,117.1,136.6,116.4,136.6z M93.3,126.7h22.1L187,96.4h-22.1L93.3,126.7z"/>
	<path d="M116.4,243.4H69c-2.3,0-4.4-1.7-4.8-4c-0.5-2.3,0.8-4.6,2.9-5.5l94.9-40.2c0.6-0.3,1.3-0.4,1.9-0.4h47.4
		c2.3,0,4.4,1.7,4.8,4c0.5,2.3-0.8,4.6-2.9,5.5L118.4,243C117.8,243.3,117.1,243.4,116.4,243.4z M93.3,233.5h22.1l71.5-30.3h-22.1
		L93.3,233.5z"/>
</g>
</svg>
