<?xml version="1.0" encoding="utf-8"?>
<!-- Generator: Adobe Illustrator 18.0.0, SVG Export Plug-In . SVG Version: 6.00 Build 0)  -->
<!DOCTYPE svg PUBLIC "-//W3C//DTD SVG 1.1//EN" "http://www.w3.org/Graphics/SVG/1.1/DTD/svg11.dtd">
<svg version="1.1" id="圖層_1" xmlns="http://www.w3.org/2000/svg" xmlns:xlink="http://www.w3.org/1999/xlink" x="0px" y="0px"
	 viewBox="0 0 82.3 81.3" enable-background="new 0 0 82.3 81.3" xml:space="preserve">
<path fill="#2E3192" d="M73.1,62.3c0,5.5-4.5,10-10,10h-44c-5.5,0-10-4.5-10-10v-44c0-5.5,4.5-10,10-10h44c5.5,0,10,4.5,10,10V62.3z
	"/>
<path fill="#2E3192" d="M73.1,23.2c0,0.3,0,0.5,0,0.8v23.6c0,0,0,0,0,0V23.2z"/>
<g>
	<path fill="#FFFFFF" d="M17.2,46L17.2,46c0-7.9,5.9-14.3,14.4-14.3c4.1,0,6.9,1.1,9.2,2.8c0.6,0.5,1.2,1.3,1.2,2.4
		c0,1.7-1.3,2.9-3,2.9c-0.8,0-1.4-0.3-1.8-0.6c-1.7-1.3-3.5-2-5.6-2c-4.6,0-8,3.9-8,8.6v0.1c0,4.7,3.3,8.7,8,8.7
		c2.6,0,4.2-0.8,6-2.2c0.5-0.4,1.1-0.7,1.8-0.7c1.5,0,2.8,1.3,2.8,2.8c0,0.9-0.5,1.7-1,2.2c-2.5,2.2-5.4,3.5-9.8,3.5
		C23.2,60.2,17.2,53.9,17.2,46z"/>
</g>
<g>
	<path fill="#FFFFFF" d="M62.7,45.1c-1.3-1.1-2.7-1.7-4.6-1.7c-3.7,0-6.3,3-6.3,6.8v0.1c0,3.8,2.7,6.8,6.3,6.8c2,0,3.4-0.7,4.8-1.8
		c0.2-0.2,0.6-0.4,1-0.4c0.9,0,1.6,0.7,1.6,1.6c0,0.5-0.2,0.9-0.5,1.2c-1.8,1.6-3.9,2.6-7,2.6c-5.6,0-9.8-4.4-9.8-9.9v-0.1
		c0-5.5,4.1-9.9,9.9-9.9c3,0,4.9,0.9,6.6,2.2c0.4,0.3,0.7,0.7,0.7,1.3c0,0.9-0.7,1.6-1.7,1.6C63.2,45.5,62.9,45.3,62.7,45.1"/>
</g>
<g>
	<path fill-rule="evenodd" clip-rule="evenodd" fill="#FFFFFF" d="M18.4,15.1c13.1,0,23.8,4.8,30.1,18.4c2.4-1.4,5.2-2.3,8.2-2.3
		c5.6,0,10.5,2.8,13.4,7.2c-0.7-6.6-6.3-11.8-13.2-11.8c-2.5,0-4.8,0.7-6.8,1.9C46,17.6,36.2,13.3,25.4,13.3c-3.6,0-7,0.7-10.1,1.9
		C16.3,15.1,17.3,15.1,18.4,15.1z"/>
</g>
</svg>
