<?xml version="1.0" encoding="utf-8"?>
<!-- Generator: Adobe Illustrator 24.1.0, SVG Export Plug-In . SVG Version: 6.00 Build 0)  -->
<svg version="1.1" id="Capa_1" xmlns="http://www.w3.org/2000/svg" xmlns:xlink="http://www.w3.org/1999/xlink" x="0px" y="0px"
	 viewBox="0 0 512 512" style="enable-background:new 0 0 512 512;" xml:space="preserve">
<style type="text/css">
	.st0{fill:#0ACF83;}
	.st1{fill:#A259FF;}
	.st2{fill:#F24E1E;}
	.st3{fill:#FF7262;}
	.st4{fill:#1ABCFE;}
</style>
<g>
	<path class="st0" d="M178.8,494.9c43.8,0,79.4-35.5,79.4-79.4v-79.4h-79.4c-43.8,0-79.4,35.5-79.4,79.4S135,494.9,178.8,494.9z"/>
	<path class="st1" d="M99.4,256.7c0-43.8,35.5-79.4,79.4-79.4h79.4v158.8h-79.3C135,336.1,99.4,300.5,99.4,256.7z"/>
	<path class="st2" d="M99.4,97.9c0-43.8,35.6-79.4,79.4-79.4h79.4v158.8h-79.4C135,177.3,99.4,141.7,99.4,97.9z"/>
	<path class="st3" d="M258.2,18.5h79.4c43.8,0,79.4,35.5,79.4,79.4s-35.5,79.4-79.4,79.4h-79.4V18.5z"/>
	<path class="st4" d="M417,256.7c0,43.8-35.5,79.4-79.4,79.4s-79.4-35.5-79.4-79.4s35.5-79.4,79.4-79.4S417,212.9,417,256.7z"/>
</g>
</svg>
