<?xml version="1.0" encoding="utf-8"?>
<!-- Generator: Adobe Illustrator 22.0.1, SVG Export Plug-In . SVG Version: 6.00 Build 0)  -->
<svg version="1.1" id="圖層_1" xmlns="http://www.w3.org/2000/svg" xmlns:xlink="http://www.w3.org/1999/xlink" x="0px" y="0px"
	 viewBox="0 0 542.9 107.4" style="enable-background:new 0 0 542.9 107.4;" xml:space="preserve">
<style type="text/css">
	.st0{fill:#A176D5;}
</style>
<g>
	<path class="st0" d="M30.9,35.6c0-1.2,0.4-2.3,1.3-3.2c0.9-0.9,1.9-1.3,3.2-1.3c1.2,0,2.3,0.4,3.2,1.3c0.9,0.9,1.3,1.9,1.3,3.2
		s-0.4,2.3-1.3,3.2c-0.9,0.9-1.9,1.3-3.2,1.3c-1.2,0-2.3-0.4-3.2-1.3C31.4,37.9,30.9,36.9,30.9,35.6z M32.4,47.2h6.1v32.3h-6.1V47.2
		z"/>
	<path class="st0" d="M63,31.3h9.8l15.3,36.6h0.3l15.2-36.6h9.8v48.3h-6.5V39.9h-0.1L90.4,79.6H86L69.7,39.9h-0.1v39.7H63V31.3z"/>
	<path class="st0" d="M138.5,31.3h9.8l15.3,36.6h0.3L179,31.3h9.8v48.3h-6.5V39.9h-0.1l-16.3,39.7h-4.4l-16.3-39.7H145v39.7h-6.5
		V31.3z"/>
	<path class="st0" d="M214.4,31.3h31.2v6.1h-24.6v14.4h22.9v6.1h-22.9v15.5h25.9v6.1h-32.4V31.3z"/>
	<path class="st0" d="M269.7,31.3h17c3.1,0,5.6,0.4,7.6,1.3c2,0.8,3.6,1.9,4.7,3.2c1.2,1.3,2,2.8,2.4,4.4c0.5,1.6,0.7,3.2,0.7,4.7
		c0,1.5-0.3,3-0.8,4.5c-0.5,1.4-1.3,2.7-2.4,3.9s-2.3,2.1-3.8,2.9c-1.5,0.8-3.1,1.3-4.9,1.5l13.7,22h-8.2l-12.3-21.3h-7.3v21.3h-6.5
		V31.3z M276.3,52.5h8.6c1.3,0,2.5-0.1,3.8-0.3c1.2-0.2,2.4-0.6,3.3-1.1c1-0.5,1.8-1.3,2.4-2.4c0.6-1,0.9-2.4,0.9-4s-0.3-3-0.9-4
		c-0.6-1-1.4-1.8-2.4-2.4s-2.1-0.9-3.3-1.1c-1.3-0.2-2.5-0.3-3.8-0.3h-8.6V52.5z"/>
	<path class="st0" d="M326.5,69.5c1.2,1.8,2.7,3.1,4.5,3.9c1.8,0.8,3.7,1.3,5.7,1.3c1.1,0,2.2-0.2,3.3-0.5c1.1-0.3,2.2-0.9,3.1-1.5
		c0.9-0.7,1.7-1.5,2.3-2.5c0.6-1,0.9-2.2,0.9-3.5c0-1.9-0.6-3.3-1.8-4.3c-1.2-1-2.7-1.8-4.4-2.5c-1.8-0.7-3.7-1.3-5.7-1.9
		c-2.1-0.6-4-1.5-5.7-2.6c-1.8-1.1-3.2-2.6-4.4-4.4s-1.8-4.3-1.8-7.5c0-1.4,0.3-2.9,0.9-4.5c0.6-1.6,1.6-3,2.9-4.4
		c1.3-1.3,3-2.4,5.1-3.3s4.6-1.3,7.5-1.3c2.6,0,5.2,0.4,7.6,1.1c2.4,0.7,4.5,2.2,6.3,4.4l-5.3,4.8c-0.8-1.3-2-2.3-3.5-3.1
		c-1.5-0.8-3.2-1.2-5.1-1.2c-1.8,0-3.3,0.2-4.5,0.7s-2.2,1.1-2.9,1.8s-1.2,1.6-1.5,2.4c-0.3,0.9-0.4,1.7-0.4,2.4
		c0,2,0.6,3.6,1.8,4.7c1.2,1.1,2.6,2,4.4,2.7s3.7,1.3,5.7,1.8c2.1,0.5,4,1.3,5.7,2.3c1.8,1,3.2,2.3,4.4,4c1.2,1.7,1.8,3.9,1.8,6.9
		c0,2.3-0.4,4.4-1.3,6.3c-0.9,1.9-2.1,3.4-3.6,4.7c-1.5,1.3-3.3,2.3-5.3,2.9c-2,0.7-4.2,1-6.5,1c-3.1,0-6-0.5-8.8-1.6
		c-2.8-1.1-5-2.8-6.6-5L326.5,69.5z"/>
	<path class="st0" d="M386.7,37.4h-15.6v-6.1h37.7v6.1h-15.6v42.2h-6.5V37.4z"/>
	<path class="st0" d="M438.3,31.3h5.9l20.7,48.3h-7.6l-4.8-11.9h-23l-4.8,11.9H417L438.3,31.3z M450,61.9l-9-22.2h-0.1l-9.1,22.2
		H450z"/>
	<path class="st0" d="M491.1,59l-18.3-27.7h8.4l13.2,21.2L508,31.3h8L497.7,59v20.6h-6.5V59z"/>
</g>
</svg>
