<svg id="圖層_4" data-name="圖層 4" xmlns="http://www.w3.org/2000/svg" viewBox="0 0 51.17 43.76"><defs><style>.cls-1{fill:#f0f;}.cls-2{fill:#fff;}</style></defs><path class="cls-1" d="M129,239.42a6,6,0,1,1,6.09,6.09A6.05,6.05,0,0,1,129,239.42Z" transform="translate(-129.01 -233.32)"/><path class="cls-2" d="M130.38,277.08v-29h9.35v29Z" transform="translate(-129.01 -233.32)"/><path class="cls-2" d="M148.91,277.08V235.6h17.71a12.09,12.09,0,0,1,5.46,1.22,13.94,13.94,0,0,1,4.27,3.22,15.14,15.14,0,0,1,2.8,4.5,13.4,13.4,0,0,1,1,5.08,14.65,14.65,0,0,1-1,5.26,15.08,15.08,0,0,1-2.69,4.5,12.77,12.77,0,0,1-4.17,3.15,12.49,12.49,0,0,1-5.44,1.17H158.5v13.38Zm9.59-21.73h7.83a3.72,3.72,0,0,0,2.92-1.46,6.49,6.49,0,0,0,1.23-4.27,7.49,7.49,0,0,0-.38-2.51,5.31,5.31,0,0,0-1-1.76,4,4,0,0,0-1.46-1A4.5,4.5,0,0,0,166,244H158.5Z" transform="translate(-129.01 -233.32)"/></svg>