<?xml version="1.0" encoding="utf-8"?>
<!-- Generator: Adobe Illustrator 22.0.1, SVG Export Plug-In . SVG Version: 6.00 Build 0)  -->
<svg version="1.1" id="圖層_1" xmlns="http://www.w3.org/2000/svg" xmlns:xlink="http://www.w3.org/1999/xlink" x="0px" y="0px"
	 viewBox="0 0 219.8 262" style="enable-background:new 0 0 219.8 262;" xml:space="preserve">
<style type="text/css">
	.st0{fill:#0A428F;}
	.st1{fill:#FEFEFE;}
	.st2{fill:#EB1C24;}
</style>
<g>
	<path class="st0" d="M109.6,189.1c-30.9,0-61.7,0-92.5,0.1c-2,0-2.4-0.6-2.4-2.5c0.1-56.1,0.1-112.1,0-168.2c0-2.3,0.6-2.8,2.8-2.8
		c56.3,0.1,112.6,0.1,168.9,0.1c11,0,18.2,7.1,18.2,18.2c0,50.9,0,101.9,0.1,152.8c0,2.1-0.8,2.3-2.6,2.3
		C171.3,189.1,140.5,189.1,109.6,189.1z M97.9,45.3c0-3.2,0-5.8,0-8.5c0-3.8-1.1-4.9-4.9-4.9c-16.7,0-33.4,0-50.2,0
		c-4,0-5.2,1.1-5.2,5.2c0,43.6,0,87.2,0,130.8c0,4.6,0.9,5.6,5.5,5.6c42.3,0,84.7,0,127,0c3.5,0,4.2-0.6,3.3-4
		c-1.6-6.6-0.9-12.9,0.7-19.4c2.5-9.9,5.8-19.6,8-29.7c2.3-10.9,4-21.7,2.1-32.8c-5.2-31.9-37.4-54.3-69.1-48.2
		C109.4,40.4,103.7,42.4,97.9,45.3z"/>
	<path class="st0" d="M109.9,222.4c30.7,0,61.3,0,92-0.1c2.1,0,2.8,0.5,2.8,2.7c-0.1,7.1-0.1,14.2,0,21.3c0,1.6-0.4,2.1-2.1,2.1
		c-56.5-0.1-113.1-0.1-169.6,0c-10.5,0-18.7-7.9-18.2-18.4c0.1-1.8,0.1-3.7,0-5.4c-0.2-2,0.7-2.3,2.4-2.3
		C48,222.4,78.9,222.3,109.9,222.4L109.9,222.4z"/>
	<path class="st0" d="M29,206c0.4-3,0.8-5.2,1.1-7.4c0.4-3,2.7-1.6,4.3-1.8c2-0.1,1.1,1.5,1,2.3c-0.7,4.7-1.5,9.5-2.1,14.3
		c-0.2,1.5-0.8,2-2.3,2.1c-2.7,0.2-4.2-0.5-4.9-3.3c-0.4-1.6-0.8-3.4-2.5-4.9c-0.4,2.3-0.7,4.3-1,6.3c-0.3,1.8-1.8,2.3-4.5,1.8
		c-1.8-0.4-0.8-1.6-0.7-2.4c0.7-4.9,1.5-9.7,2.1-14.5c0.1-0.9,0.3-2.1,1.6-1.8c1.6,0.3,3.8-1.1,4.8,1.2
		C26.9,200.3,27.8,202.9,29,206z"/>
	<path class="st0" d="M110.2,205.1c0.3-2.1,0.6-4.3,1-6.4c0.3-2,1.4-2.4,4.4-2c2,0.3,1,1.6,0.9,2.5c-0.6,4.7-1.4,9.3-2.1,14
		c-0.1,0.9,0,2.4-1.6,2.1c-1.7-0.3-3.9,1.3-4.9-1.3c-0.9-2.3-1.8-4.7-3.2-7.1c-0.3,2.2-0.6,4.4-1,6.6c-0.3,1.9-1.5,2.4-4.4,1.9
		c-2-0.3-1-1.8-0.9-2.8c0.6-4.6,1.5-9.2,2.1-13.8c0.2-1.7,0.8-2.1,2.5-2.3c2.6-0.2,4.1,0.5,4.7,3.2c0.4,1.8,1.3,3.5,2,5.2
		C109.9,205.1,110.1,205.1,110.2,205.1z"/>
	<path class="st0" d="M174.2,206.6c-1,2.8-0.6,5.7-1.8,8.1c-0.9,2-2.7,0.6-4.1,0.8c-1.2,0.1-0.9-1.1-0.8-1.8
		c0.8-5.2,1.6-10.3,2.3-15.5c0.1-0.9,0.6-1.3,1.5-1.4c4.1-0.4,4.3-0.3,5.8,3.6c0.6,1.6,1.3,3.2,2.1,5.5c0.5-3,0.8-5.3,1.3-7.6
		c0.6-2.9,3-1.3,4.4-1.4c1.6-0.2,0.8,1.3,0.8,2.1c-0.7,4.9-1.5,9.7-2.1,14.5c-0.2,1.5-0.8,1.8-2.3,2c-2.8,0.3-4.4-0.6-5-3.5
		C175.8,210.3,174.9,208.6,174.2,206.6z"/>
	<path class="st0" d="M96.9,204.3c-0.1,5.7-3.3,10.3-8,11.2c-2.8,0.6-5.6,0.4-7.5-2.1c-2-2.7-2.2-5.9-0.9-9c0.6-1.5,0.8-3.2,2.1-4.5
		c1.6-1.8,3.5-3,5.8-3.3C93.7,195.8,97,198.8,96.9,204.3z M85.8,208c0.2,1.3-0.3,3.1,1.7,3.3c1.8,0.2,2.3-1.4,2.8-2.7
		c0.6-1.8,1-3.7,0.8-5.6c-0.1-0.9-0.3-2-1.5-2.1c-1.1-0.2-1.8,0.5-2.3,1.4C86.3,204,85.9,205.9,85.8,208z"/>
	<path class="st0" d="M149.5,196.9c3.5,0,3.5,0,3.9,3.3c0.6,4.4,1.1,8.8,1.7,13.1c0.3,1.7-0.2,2.4-1.9,2.2c-0.9-0.1-1.7,0-2.6,0
		c-0.6,0-1.2-0.1-1.2-0.8c0-1.3-0.2-2.1-1.8-2c-1.3,0.1-2.8-0.4-3.3,1.6c-0.3,1.1-4.9,1.8-5.7,1c-0.4-0.5-0.1-1,0.1-1.5
		c2.3-5.2,4.7-10.3,6.9-15.5C146.5,196.1,148.3,197.2,149.5,196.9z M148.7,203.8c-0.7,0.9-1.6,1.6-1.6,2.8c0,0.6-0.8,1.2,0.1,1.6
		c0.3,0.2,0.9,0.2,1.3,0c0.6-0.3,0.3-0.9,0.3-1.5C148.8,205.8,148.7,204.8,148.7,203.8z"/>
	<path class="st0" d="M132.6,196.9c0.6,0,1.3,0,1.9,0c4,0,5.7,1.1,6,4.1c0.3,3.5-1.9,7.3-5.2,7.3c-3.6,0-4,1.9-4.2,4.5
		c-0.1,0.9,0.3,2.3-0.8,2.5c-1.5,0.3-3.2,0.2-4.7,0.1c-0.7-0.1-0.6-0.8-0.5-1.4c0.8-5.3,1.6-10.5,2.4-15.8c0.2-1.2,0.8-1.3,1.8-1.3
		C130.4,196.9,131.5,196.9,132.6,196.9z M135.2,202.2c0-1.1-0.7-2.3-1.5-2.1c-1.6,0.4-0.7,2.3-1.2,3.5c-0.2,0.5-0.3,1.4,0.8,1.2
		C134.6,204.6,135.2,203.6,135.2,202.2z"/>
	<path class="st0" d="M49.8,215.5c-3,0-3,0-2.6-3c0.7-4.4,1.5-8.7,2-13.1c0.3-2.1,1.1-2.8,3.2-2.6c1.5,0.1,3,0.1,4.5,0.1
		c3.4,0,4.9,0.9,5.6,3.3c0.7,2.7-0.8,6.2-3.3,7.5c-1.2,0.6-2.5,0.9-3.8,0.8c-1.3-0.1-1.7,0.4-1.8,1.6c-0.1,0.9-0.3,1.7-0.4,2.6
		C52.7,215.5,52.7,215.5,49.8,215.5z M54.5,203.6c-0.1,0.6-0.4,1.4,0.6,1.3c1.4-0.1,2.1-1.1,2.2-2.3c0.1-1-0.2-2.1-1.4-2
		C53.8,200.7,55.3,202.7,54.5,203.6z"/>
	<path class="st0" d="M66,215.5c-3,0-3,0-2.6-3c0.8-4.6,1.5-9.2,2.1-13.8c0.2-1.5,0.8-2,2.3-1.9c1.7,0.1,3.5,0,5.2,0.1
		c3.6,0,5.2,1.1,5.7,3.7c0.5,2.8-1.3,6.2-3.7,7.3c-0.6,0.3-1.3,0.6-1.8,0.5c-3.3-0.4-3.6,1.6-3.8,4C69,215.5,68.9,215.5,66,215.5z
		 M70.5,203.7c0,0.6-0.3,1.3,0.6,1.3c1.4-0.1,2.1-1.1,2.3-2.3c0.1-1-0.3-2.1-1.4-2C70,200.7,71.4,202.7,70.5,203.7z"/>
	<path class="st0" d="M195.8,196.9c1.6,0,3.2-0.1,4.7,0c0.8,0,2.1-0.4,1.9,1.2c-0.2,1.3,0,3.2-1.9,3.1c-2.3-0.1-2.7,0.9-2.9,2.8
		c-0.3,3.2-1,6.2-1.3,9.3c-0.2,1.7-0.8,2.4-2.5,2.1c-0.6-0.1-1.1-0.1-1.6,0c-2,0.3-2.2-0.6-1.9-2.3c0.6-3.3,0.9-6.7,1.6-10
		c0.3-1.5,0-2.1-1.6-1.9c-0.9,0.1-2.3,0.1-1.9-1.2c0.3-1.1-0.5-3.3,2-3.2C192.2,196.9,194,196.9,195.8,196.9L195.8,196.9z"/>
	<path class="st0" d="M39.9,215.5c-3.2,0-3.2,0-2.7-3.1c0.7-4.5,1.5-9,2-13.5c0.2-1.7,0.8-2.4,2.5-2.2c0.8,0.1,1.6,0.1,2.3,0
		c1.1-0.1,1.5,0.4,1.3,1.6c-0.8,5.1-1.6,10.2-2.3,15.3C43,216.1,41.3,215.4,39.9,215.5z"/>
	<path class="st0" d="M160.5,215.5c-3.3,0-3.3,0-2.8-3c0.7-4.5,1.5-9,2-13.6c0.2-1.7,0.8-2.2,2.5-2.1c3.8,0.1,3.8,0.1,3.3,3.9
		c-0.6,3.9-1.3,7.8-1.7,11.7C163.6,214.9,162.7,216.1,160.5,215.5z"/>
	<path class="st1" d="M97.9,45.3c5.7-2.9,11.5-4.9,17.5-6.1c31.7-6.1,63.9,16.3,69.1,48.2c1.8,11.1,0.3,22-2.1,32.8
		c-2.1,10-5.5,19.8-8,29.7c-1.6,6.4-2.3,12.8-0.7,19.4c0.8,3.4,0.1,4-3.3,4c-42.3,0-84.7,0-127,0c-4.5,0-5.5-0.9-5.5-5.6
		c0-43.6,0-87.2,0-130.8c0-4.1,1.1-5.2,5.2-5.2c16.7,0,33.4,0,50.2,0c3.8,0,4.9,1.1,4.9,4.9C97.9,39.5,97.9,42.1,97.9,45.3z
		 M90.9,59.1c0-3.8-0.1-7.3,0-10.6c0.1-1.8-0.6-2.3-2.3-2.3c-13.9,0.1-27.8,0.1-41.7,0c-1.7,0-2.1,0.6-2.1,2.1
		c0.1,38.6,0.1,77.3,0,115.9c0,1.8,0.6,2.2,2.3,2.2c13.6-0.1,27.3-0.1,41,0c2.3,0,2.8-0.6,2.8-2.8c-0.1-17.4-0.1-34.8-0.1-52.3
		c0-1.9,0.1-3.8,0.3-5.7c1.3-11.9,13.9-20.2,25-16c7.3,2.7,10.5,8.8,11.9,16.1c1.4,7.5-0.3,14.8-2.4,21.9
		c-3.9,13.1-10,25.1-16.8,36.9c-0.7,1.2-1.3,2,0.9,2c18-0.1,36.1-0.1,54.2,0c1.6,0,2-0.4,1.8-2c-0.4-3.9,0-7.8,0.8-11.7
		c2.3-12.6,7.2-24.4,9.3-37c0.7-4.3,1.8-8.6,2.1-13c1.3-16.2-3.4-30.4-15.1-41.8c-17.2-17-43.2-20.2-63.8-7.8
		C96.3,54.6,93.8,56.7,90.9,59.1z M98.3,166.6c0.6-1.1,1.9-1.5,2.6-2.7c3.7-6.4,7.2-12.9,10.4-19.6c4.1-8.5,7.8-17.2,9.5-26.6
		c1-5.6,1.1-11.2-1.7-16.3c-3.8-7.1-12.6-7.8-17.7-1.6c-2.6,3.1-3.5,6.6-3.5,10.5c0,18.2,0,36.4,0,54.6
		C97.9,165.5,97.7,166,98.3,166.6z"/>
	<path class="st2" d="M90.9,59.1c2.9-2.3,5.4-4.4,8.2-6.1c20.6-12.4,46.6-9.2,63.8,7.8c11.7,11.5,16.3,25.6,15.1,41.8
		c-0.3,4.4-1.4,8.6-2.1,13c-2.1,12.6-7.1,24.5-9.3,37c-0.7,3.9-1.1,7.8-0.8,11.7c0.2,1.6-0.3,2-1.8,2c-18-0.1-36.1-0.1-54.2,0
		c-2.2,0-1.6-0.8-0.9-2c6.8-11.7,12.9-23.8,16.8-36.9c2.1-7.1,3.7-14.4,2.4-21.9c-1.3-7.3-4.6-13.4-11.9-16.1
		c-11-4.2-23.7,4.1-25,16c-0.2,1.9-0.3,3.8-0.3,5.7c0,17.4-0.1,34.8,0.1,52.3c0,2.2-0.5,2.9-2.8,2.8c-13.6-0.1-27.3-0.1-41,0
		c-1.7,0-2.3-0.3-2.3-2.2c0.1-38.6,0.1-77.3,0-115.9c0-1.6,0.4-2.1,2.1-2.1c13.9,0.1,27.8,0.1,41.7,0c1.8,0,2.4,0.5,2.3,2.3
		C90.8,51.8,90.9,55.2,90.9,59.1z"/>
	<path class="st0" d="M98.3,166.6c-0.5-0.6-0.3-1.1-0.3-1.6c0-18.2,0-36.4,0-54.6c0-3.8,0.9-7.4,3.5-10.5c5.2-6.2,13.8-5.4,17.7,1.6
		c2.8,5.2,2.7,10.7,1.7,16.3c-1.7,9.4-5.5,18-9.5,26.6c-3.2,6.7-6.8,13.1-10.4,19.6C100.1,165.2,98.9,165.5,98.3,166.6z"/>
</g>
</svg>
