<svg id="Capa_1" data-name="Capa 1" xmlns="http://www.w3.org/2000/svg" viewBox="0 0 52 52"><defs><style>.cls-1{fill:#fc524f;}.cls-2{fill:#fe9c8c;}.cls-3{fill:#fbd0c9;}.cls-4{fill:#fc5552;}.cls-5{fill:#fb4f4d;}.cls-6{fill:#fd5a56;}.cls-7{fill:#fc5754;}.cls-8{fill:#fd5b57;}.cls-9{fill:#fd5c58;}.cls-10{fill:#fb4d4c;}.cls-11{fill:#fb4e4c;}.cls-12{fill:#fd605b;}.cls-13{fill:#fd5d59;}.cls-14{fill:#fb4c4b;}.cls-15{fill:#fb4a49;}.cls-16{fill:#fd5f5a;}.cls-17{fill:#fe625c;}.cls-18{fill:#fd5e59;}.cls-19{fill:#fa4747;}.cls-20{fill:#fe645e;}</style></defs><path class="cls-1" d="M41,33.45a34.7,34.7,0,0,1-2.71,3.22c-.4,0-.63-.27-.87-.52-3.14-3.23-6.4-6.33-9.56-9.54C26.61,25.3,25.3,24,24,22.73c-1.48-1.44-2.94-2.9-4.41-4.35s-3-3-4.51-4.45c-1-1-2-2-3-3s-2-1.88-2.91-2.88C7.94,6.8,6.59,5.69,5.42,4.4c-.32-.35-.84-.59-.74-1.2H11C12.57,4.83,14.2,6.43,15.83,8,17,9.2,18.24,10.35,19.4,11.53s2.56,2.59,3.85,3.85c2.27,2.2,4.48,4.46,6.74,6.67,1.47,1.44,3,2.87,4.42,4.33,2.05,2.06,4.14,4.08,6.19,6.14C40.84,32.77,41.25,33,41,33.45Z"/><path class="cls-2" d="M8.29,21.74,3.37,15.86a2,2,0,0,1-.53-2.24,1.92,1.92,0,0,1,2.06-1c.95,0,1.89,0,2.84,0,.23,0,.5.11.68-.15.36-.07.47.22.64.42.93,1.07,1.8,2.19,2.74,3.25,1.91,2.36,3.87,4.68,5.83,7,1.61,1.91,3.17,3.84,4.8,5.72.92,1.17,1.9,2.29,2.84,3.43a2.09,2.09,0,0,1,.54,1c0,3,.05,5.9,0,8.85-.2.59-.46.27-.67,0-1-1.12-1.92-2.28-2.88-3.42L11.72,26.12c-1-1.24-2.06-2.49-3.11-3.72A1.46,1.46,0,0,1,8.29,21.74Z"/><path class="cls-3" d="M8.29,21.74c2.67,3.2,5.34,6.41,8,9.6,2.43,2.9,4.87,5.78,7.3,8.67a30.43,30.43,0,0,0,2,2.37,1.06,1.06,0,0,1,.2.84c0,1.84,0,3.67,0,5.5a1.22,1.22,0,0,1-.19.85c-1.77,0-2.85-1.07-3.87-2.32C19.92,45,18,42.74,16.16,40.49l-5.55-6.71L5,27.1c-.64-.77-1.26-1.54-1.9-2.3a1.75,1.75,0,0,1-.24-2A1.69,1.69,0,0,1,4.6,21.9c1,0,2,0,3,0C7.83,21.89,8.1,22,8.29,21.74Z"/><path class="cls-4" d="M41,33.45c0-.35-.28-.52-.48-.73-1.21-1.21-2.42-2.43-3.64-3.63S34.73,27,33.66,26c-3.17-3.15-6.29-6.36-9.51-9.47-1.21-1.17-2.39-2.36-3.59-3.54-1.48-1.46-3-2.89-4.46-4.38S12.93,5.29,11.19,3.8A.68.68,0,0,1,11,3.2H16.8c2.42,2.43,4.84,4.87,7.3,7.26,5.83,5.67,11.56,11.45,17.32,17.18.64.63,1.26,1.28,1.9,1.91.18.19.43.35.39.68A41.06,41.06,0,0,1,41,33.45Z"/><path class="cls-5" d="M4.68,3.2A16.6,16.6,0,0,0,7.59,6.27c.44.4.83.85,1.25,1.26,1.57,1.55,3.16,3.08,4.72,4.63s3,3.08,4.58,4.56c1.33,1.26,2.64,2.54,3.9,3.85,1.05,1.09,2.14,2.15,3.21,3.2,2.49,2.47,5,4.95,7.47,7.4,1.45,1.41,2.93,2.8,4.36,4.24a7.84,7.84,0,0,0,1.25,1.26,16,16,0,0,1-1.78,2.16,3.56,3.56,0,0,1-1.24-.93c-3.92-4-8-7.92-11.92-11.92-1.52-1.54-3.06-3.07-4.6-4.58-4.11-4-8.18-8.07-12.26-12.11C5.77,8.54,5.06,7.74,4.27,7,4,6.8,3.84,6.52,3.48,6.5A1.65,1.65,0,0,1,3,5.91c0-.2-.17-.31-.25-.46C2.25,4.1,3.1,3.12,4.68,3.2Z"/><path class="cls-6" d="M47.77,25.37l-1.63,2a4.14,4.14,0,0,1-1.31-1.19c-1.24-1.36-2.62-2.57-3.89-3.9s-2.71-2.7-4.07-4S34.31,15.64,33,14.38c-1.07-1-2.11-2.1-3.16-3.15Q27.74,9.13,25.61,7c-1-1-2.06-2-3-3.07-.18-.19-.48-.41-.26-.77h3.29C27.39,4.83,29,6.6,30.76,8.27c2.51,2.42,5,4.88,7.44,7.33,1.08,1.06,2.16,2.13,3.25,3.17s2,2.13,3.12,3.09,1.88,2.05,3,2.94C47.69,24.93,47.88,25.1,47.77,25.37Z"/><path class="cls-7" d="M43.71,30.23,33.32,19.84c-1-1-2.05-2.1-3.09-3.12-1.43-1.41-2.9-2.78-4.32-4.19-2-2-4-4-6-5.95L17.18,3.81c-.17-.17-.39-.32-.38-.61h2.84a16.9,16.9,0,0,0,1.51,1.54c1.2,1.25,2.51,2.4,3.67,3.7.82.93,1.74,1.77,2.64,2.62,2.08,2,4,4.07,6.11,6,1.4,1.31,2.75,2.66,4.1,4,1.88,1.88,3.83,3.69,5.65,5.63.44.47,1,.85,1.38,1.36.16.2.42.39.22.71A7.52,7.52,0,0,1,43.71,30.23Z"/><path class="cls-7" d="M44.92,28.8c-.1-.6-.61-.91-1-1.27-1.34-1.27-2.63-2.61-4-3.91-1.57-1.54-3.1-3.13-4.69-4.64-2.47-2.35-4.83-4.81-7.27-7.18-1.33-1.29-2.63-2.62-4-3.9s-2.52-2.73-4-3.89a.86.86,0,0,1-.44-.81h2.69a2.82,2.82,0,0,0,.84,1.2C24.74,5.92,26.28,7.49,27.84,9c1.27,1.24,2.51,2.52,3.81,3.75,1.76,1.66,3.44,3.41,5.18,5.09s3.32,3.19,4.9,4.86a58.16,58.16,0,0,1,4.41,4.61A8.15,8.15,0,0,1,44.92,28.8Z"/><path class="cls-8" d="M47.77,25.37c-1.25-1.19-2.31-2.58-3.68-3.65-.48-.38-.76-.91-1.19-1.32-3-3-6.06-5.92-9-8.91-1.33-1.33-2.7-2.61-4-3.94a43.65,43.65,0,0,0-3.76-3.69.87.87,0,0,1-.44-.66h2.69c.89.87,1.79,1.72,2.67,2.6,1.35,1.36,2.7,2.72,4.08,4.05s2.55,2.51,3.81,3.77c1.06,1.06,2.1,2.13,3.17,3.16,1.39,1.35,2.77,2.73,4.13,4.12.82.83,1.71,1.59,2.46,2.5A2.09,2.09,0,0,1,47.77,25.37Z"/><path class="cls-9" d="M48.63,23.4a10.33,10.33,0,0,1-2.3-2.07c-1.62-1.57-3.21-3.17-4.81-4.76-1.13-1.14-2.28-2.26-3.41-3.4-1.39-1.43-2.84-2.8-4.26-4.21C32.2,7.33,30.57,5.68,28.92,4a2.52,2.52,0,0,1-.61-.84h2.55c1,1,2,2,3,3,.57.62,1.21,1.17,1.8,1.77C37,9.32,38.4,10.7,39.84,12s2.8,2.76,4.2,4.13a39,39,0,0,1,3.19,3.24,9.29,9.29,0,0,0,1.4,1.33Z"/><path class="cls-10" d="M22.31,28.94c-1.28-1.32-2.37-2.79-3.56-4.19-2-2.3-3.89-4.62-5.82-6.95a8.52,8.52,0,0,1-1.23-1.57c.3-.34.54-.36.9,0s.76.72,1.12,1.09c2.15,2.21,4.39,4.33,6.57,6.51q7.42,7.45,14.88,14.9a1.88,1.88,0,0,1,.65.8,3.7,3.7,0,0,1-1,1.4.84.84,0,0,1-.48-.34c-.89-1.14-2-2-3-3.08s-1.92-1.86-2.87-2.81c-1.46-1.46-2.94-2.9-4.41-4.34A11.67,11.67,0,0,0,22.31,28.94Z"/><path class="cls-11" d="M35.82,39.56c-.23-.19-.46-.37-.67-.58-4.25-4.25-8.48-8.5-12.74-12.73-2.29-2.28-4.56-4.57-6.89-6.81a28.81,28.81,0,0,1-3-3c-.17-.23-.46-.52-.81-.17-1-1-1.86-2.21-2.82-3.29-.15-.16-.25-.36-.46-.47l-4.94-6c.4-.38.57,0,.77.25,2.38,2.36,4.73,4.76,7.13,7.1,1.63,1.59,3.23,3.2,4.88,4.77,2.18,2.09,4.25,4.3,6.39,6.43,2.31,2.3,4.65,4.57,7,6.86,1,1,2,2.13,3.09,3.11,1.27,1.14,2.34,2.49,3.68,3.56a1.07,1.07,0,0,1,.16.25Z"/><path class="cls-12" d="M48.63,12v3.14c-.4.2-.59-.15-.8-.36C46.9,13.85,46,12.89,45,12c-1.28-1.15-2.43-2.41-3.67-3.6-1.52-1.46-3-2.95-4.5-4.44-.21-.2-.47-.41-.25-.76h3.29c1.41,1.59,3,3,4.49,4.53,1.22,1.26,2.52,2.45,3.76,3.69A4.52,4.52,0,0,1,48.63,12Z"/><path class="cls-13" d="M48.63,20.7c-.72-.05-1-.67-1.42-1.1S46.1,18.53,45.59,18c-1.3-1.46-2.78-2.75-4.14-4.16a42.45,42.45,0,0,0-3.29-3.13C37,9.74,36.08,8.59,35,7.57s-2-2.12-3.1-3a5.67,5.67,0,0,1-1-1.34H32.8c.65.64,1.35,1.24,2,1.9,1.29,1.34,2.64,2.62,4,3.93,1,1,2,2,3,3,1.46,1.49,3,2.94,4.46,4.4a33.13,33.13,0,0,0,2.4,2.34Z"/><path class="cls-14" d="M22.31,28.94a.64.64,0,0,1,.61.21c.93,1,2,1.93,3,2.9,1.28,1.24,2.52,2.53,3.81,3.76,1.12,1.07,2.2,2.18,3.29,3.28A18.38,18.38,0,0,1,34.78,41a19.14,19.14,0,0,1-1.68,2c-1.18-1.37-2.54-2.56-3.82-3.82A35.33,35.33,0,0,0,26,35.9a.5.5,0,0,1-.25-.43,16,16,0,0,0-.08-2.5C24.51,31.63,23.32,30.36,22.31,28.94Z"/><path class="cls-15" d="M25.78,35.66a5.22,5.22,0,0,1,2,1.7c.6.72,1.38,1.21,1.94,1.93,1,1.25,2.42,2.07,3.3,3.41a1.31,1.31,0,0,1,.09.28l-2.25,2.69c-1.23-1.15-2.42-2.35-3.6-3.56a8.62,8.62,0,0,0-1.09-1,.88.88,0,0,1-.46-.81c0-1.3,0-2.61,0-3.92A1.19,1.19,0,0,1,25.78,35.66Z"/><path class="cls-16" d="M36.54,3.2c0,.51.46.68.75,1,1.15,1.18,2.3,2.36,3.49,3.5,1.49,1.41,2.87,2.93,4.41,4.29,1,.86,1.86,1.84,2.79,2.76.19.19.34.44.65.46v2.24a1.41,1.41,0,0,1-1.1-.66c-1.2-1.37-2.53-2.61-3.83-3.87-2.63-2.54-5.14-5.2-7.8-7.71-.4-.38-.75-.79-1.13-1.19-.21-.21-.43-.45-.17-.78Z"/><path class="cls-17" d="M48.63,12c-.09,0-.21,0-.27-.1-1.49-1.47-3-3-4.46-4.42-1-1-2-1.94-3-2.9A4,4,0,0,1,39.83,3.2h4c1.28,1.19,2.38,2.56,3.72,3.7a5.4,5.4,0,0,1,1,1.24Z"/><path class="cls-18" d="M34.6,3.2c.07.85.82,1.22,1.31,1.72,2.25,2.32,4.57,4.56,6.86,6.84q2.37,2.34,4.71,4.71a7.88,7.88,0,0,0,1.15.94v1.35a1.56,1.56,0,0,1-.87-.53C46,16.48,44.29,14.71,42.5,13c-1.45-1.4-2.9-2.8-4.3-4.24a43.86,43.86,0,0,1-3.94-4c-.43-.56-1.21-.8-1.46-1.55Z"/><path class="cls-19" d="M25.78,40.6C27.59,42,29,43.75,30.67,45.27a.52.52,0,0,1,.18.4,10.49,10.49,0,0,1-1.28,1.53c-.3.11-.47-.1-.64-.27a24.61,24.61,0,0,1-2.41-2.38c-.24-.33-.77-.38-.82-.88A24.22,24.22,0,0,1,25.78,40.6Z"/><path class="cls-19" d="M25.79,43.89c.7,0,.91.63,1.28,1,.8.8,1.65,1.56,2.5,2.3-.54.47-.78,1.19-1.4,1.59a3.67,3.67,0,0,1-2.4.79A40,40,0,0,1,25.79,43.89Z"/><path class="cls-20" d="M48.63,8.14c-.43,0-.46-.48-.73-.69C46.58,6.45,45.66,5,44.35,4a1.24,1.24,0,0,1-.48-.81c1,0,2,0,3.06,0a1.65,1.65,0,0,1,1.72,1.67C48.68,6,48.64,7,48.63,8.14Z"/><path class="cls-10" d="M25.79,43.89l0,5.69c-.05.11-.09,0-.13,0,0-2.4,0-4.79,0-7.19,0-3.14,0-6.27,0-9.41.35.88.05,1.8.16,2.69V40.6C25.78,41.7,25.79,42.79,25.79,43.89Z"/><path class="cls-11" d="M2.74,5.45c.14.12.45.15.25.46A.56.56,0,0,1,2.74,5.45Z"/></svg>