<?xml version="1.0" encoding="utf-8"?>
<!-- Generator: Adobe Illustrator 22.0.1, SVG Export Plug-In . SVG Version: 6.00 Build 0)  -->
<svg version="1.1" id="圖層_1" xmlns="http://www.w3.org/2000/svg" xmlns:xlink="http://www.w3.org/1999/xlink" x="0px" y="0px"
	 viewBox="0 0 695.5 491.8" style="enable-background:new 0 0 695.5 491.8;" xml:space="preserve">
<style type="text/css">
	.st0{fill:#0F2344;}
</style>
<g>
	<path class="st0" d="M505.1,228.3c0-35.5-28.8-64.3-64.3-64.3s-64.3,28.8-64.3,64.3s28.8,64.3,64.3,64.3c15.3,0,29.4-5.4,40.4-14.3
		l18.5,18.5l13-13l-19-19C500.9,254.4,505.1,241.8,505.1,228.3z M479.3,250.3l-18.7-18.7l-13,13L467,264c-7.3,5.4-16.4,8.6-26.2,8.6
		c-24.5,0-44.4-19.9-44.4-44.4s19.9-44.4,44.4-44.4s44.4,19.9,44.4,44.4C485.2,236.3,483.1,243.8,479.3,250.3z"/>
	<path class="st0" d="M322.1,215.2c0,22.9-18.6,41.5-41.5,41.5c-22.9,0-41.5-18.6-41.5-41.5s18.6-41.5,41.5-41.5
		c4.8,0,9.5,0.8,13.8,2.3c-10-6.4-21.9-10.2-34.7-10.2c-35.5,0-64.3,28.8-64.3,64.3s28.8,64.3,64.3,64.3s64.3-28.8,64.3-64.3
		c0-5.2-0.6-10.3-1.8-15.2C322.1,215.1,322.1,215.1,322.1,215.2z"/>
	<path class="st0" d="M583.6,28.3L512.9,99c-20.8-11.1-44.6-17.5-69.9-17.5c-36.1,0-69.1,12.9-94.9,34.3
		c-25.7-21.4-58.8-34.3-94.9-34.3c-25.3,0-49.1,6.3-69.9,17.5l-70.7-70.7C68.4,72.5,68,143,111,187.5c-4,13.4-6.1,27.6-6.1,42.3
		c0,81.9,66.4,148.3,148.3,148.3c17.1,0,33.5-2.9,48.8-8.2l4.2,8.4l43.2,86.8l43.2-86.8l3.8-7.7c14.7,4.8,30.3,7.5,46.6,7.5
		c81.9,0,148.3-66.4,148.3-148.3c0-14.7-2.2-28.9-6.1-42.3C628.2,143,627.8,72.5,583.6,28.3z M440,343.6
		c-37.2,0-70.2-17.8-90.9-45.4c-20.8,27.6-53.7,45.4-90.9,45.4c-62.8,0-113.7-50.9-113.7-113.7s50.9-113.7,113.7-113.7
		c37.2,0,70.2,17.8,90.9,45.4c20.8-27.6,53.7-45.4,90.9-45.4c62.8,0,113.7,50.9,113.7,113.7C553.7,292.7,502.8,343.6,440,343.6z"/>
</g>
</svg>
