<?xml version="1.0" encoding="utf-8"?>
<!-- Generator: Adobe Illustrator 22.0.1, SVG Export Plug-In . SVG Version: 6.00 Build 0)  -->
<svg version="1.1" id="圖層_1" xmlns="http://www.w3.org/2000/svg" xmlns:xlink="http://www.w3.org/1999/xlink" x="0px" y="0px"
	 viewBox="0 0 344.7 359.8" style="enable-background:new 0 0 344.7 359.8;" xml:space="preserve">
<style type="text/css">
	.st0{fill:url(#SVGID_1_);}
	.st1{fill:url(#SVGID_2_);}
	.st2{fill:url(#SVGID_3_);}
	.st3{fill:url(#SVGID_4_);}
	.st4{fill:url(#SVGID_5_);}
	.st5{fill:url(#SVGID_6_);}
	.st6{fill:url(#SVGID_7_);}
	.st7{fill:url(#SVGID_8_);}
</style>
<g>
	<g>
		<linearGradient id="SVGID_1_" gradientUnits="userSpaceOnUse" x1="216.6375" y1="92.7759" x2="293.227" y2="92.7759">
			<stop  offset="0" style="stop-color:#2EB1C3"/>
			<stop  offset="1" style="stop-color:#7CFFBB"/>
		</linearGradient>
		<path class="st0" d="M224.4,54.2c-4.3,0-7.8,3.4-7.8,7.7c0,4.3,3.4,7.8,7.7,7.8c29.6,0.2,53.5,24.3,53.3,53.9
			c0,2.1,0.8,4.1,2.2,5.5c1.4,1.4,3.3,2.3,5.5,2.3c4.3,0,7.8-3.4,7.8-7.7C293.4,85.5,262.6,54.3,224.4,54.2L224.4,54.2z M224.4,54.2
			"/>
		<linearGradient id="SVGID_2_" gradientUnits="userSpaceOnUse" x1="216.4859" y1="107.5123" x2="263.5362" y2="107.5123">
			<stop  offset="0" style="stop-color:#2EB1C3"/>
			<stop  offset="1" style="stop-color:#7CFFBB"/>
		</linearGradient>
		<path class="st1" d="M224.3,83.8c-4.3,0-7.8,3.4-7.8,7.7c0,4.3,3.4,7.8,7.7,7.8c13.2,0,23.9,10.9,23.8,24.1c0,2.1,0.8,4.1,2.2,5.5
			c1.4,1.4,3.3,2.3,5.5,2.3c4.3,0,7.8-3.4,7.8-7.7C263.7,101.7,246.1,83.9,224.3,83.8L224.3,83.8z M224.3,83.8"/>
		<linearGradient id="SVGID_3_" gradientUnits="userSpaceOnUse" x1="213.7782" y1="123.2808" x2="234.4464" y2="123.2808">
			<stop  offset="0" style="stop-color:#2EB1C3"/>
			<stop  offset="1" style="stop-color:#7CFFBB"/>
		</linearGradient>
		<path class="st2" d="M231.4,130.6c-4.1,4-10.6,4-14.6-0.1c-4-4.1-4-10.6,0.1-14.6c4.1-4,10.6-4,14.6,0.1
			C235.5,120.1,235.4,126.6,231.4,130.6L231.4,130.6z M231.4,130.6"/>
		<linearGradient id="SVGID_4_" gradientUnits="userSpaceOnUse" x1="216.8125" y1="77.7771" x2="323.3566" y2="77.7771">
			<stop  offset="0" style="stop-color:#2EB1C3"/>
			<stop  offset="1" style="stop-color:#7CFFBB"/>
		</linearGradient>
		<path class="st3" d="M323.4,123.8c0.3-54.7-44-99.4-98.7-99.8c-4.3,0-7.8,3.4-7.8,7.7c0,4.3,3.4,7.8,7.7,7.8
			c46.2,0.2,83.5,38,83.3,84.2c0,2.1,0.8,4.1,2.2,5.5c1.4,1.4,3.3,2.3,5.5,2.3C319.8,131.5,323.3,128.1,323.4,123.8L323.4,123.8z
			 M323.4,123.8"/>
	</g>
	<linearGradient id="SVGID_5_" gradientUnits="userSpaceOnUse" x1="29.4084" y1="126.1639" x2="202.7846" y2="126.1639">
		<stop  offset="0" style="stop-color:#2EB1C3"/>
		<stop  offset="1" style="stop-color:#7CFFBB"/>
	</linearGradient>
	<path class="st4" d="M37.4,185.5c-2.3,0-4.6-1-6.2-2.9c-2.8-3.4-2.3-8.5,1.1-11.3L157.1,68.6c3-2.4,7.2-2.4,10.2,0l32.6,26.8
		c3.4,2.8,3.9,7.8,1.1,11.3c-2.8,3.4-7.8,3.9-11.3,1.1l-27.6-22.6L42.5,183.7C41,184.9,39.2,185.5,37.4,185.5z"/>
	<linearGradient id="SVGID_6_" gradientUnits="userSpaceOnUse" x1="242.3302" y1="162.4336" x2="294.8777" y2="162.4336">
		<stop  offset="0" style="stop-color:#2EB1C3"/>
		<stop  offset="1" style="stop-color:#7CFFBB"/>
	</linearGradient>
	<path class="st5" d="M286.9,185.5c-1.8,0-3.6-0.6-5.1-1.8l-36.5-30.1c-3.4-2.8-3.9-7.9-1.1-11.3c2.8-3.4,7.9-3.9,11.3-1.1
		l36.5,30.1c3.4,2.8,3.9,7.9,1.1,11.3C291.5,184.5,289.2,185.5,286.9,185.5z"/>
	<linearGradient id="SVGID_7_" gradientUnits="userSpaceOnUse" x1="141.4915" y1="158.0466" x2="183.4915" y2="158.0466">
		<stop  offset="0" style="stop-color:#2EB1C3"/>
		<stop  offset="1" style="stop-color:#7CFFBB"/>
	</linearGradient>
	<path class="st6" d="M183.5,172.6c0,3.5-2.9,6.4-6.4,6.4h-29.2c-3.5,0-6.4-2.9-6.4-6.4v-29.2c0-3.5,2.9-6.4,6.4-6.4h29.2
		c3.5,0,6.4,2.9,6.4,6.4V172.6z M153.5,166h16v-16h-16V166z"/>
	<linearGradient id="SVGID_8_" gradientUnits="userSpaceOnUse" x1="57.4915" y1="254.1466" x2="264.4915" y2="254.1466">
		<stop  offset="0" style="stop-color:#2EB1C3"/>
		<stop  offset="1" style="stop-color:#7CFFBB"/>
	</linearGradient>
	<path class="st7" d="M256.4,330H190c-4.4,0-8.5-3.4-8.5-7.8v-52c0-11-9-20-20-20c-11,0-20,9-20,20v52c0,4.4-3.1,7.8-7.5,7.8H66
		c-4.4,0-8.5-3.4-8.5-7.8v-136c0-4.4,3.6-8,8-8s8,3.6,8,8V314h52v-43.8c0-19.9,16.1-36,36-36s36,16.1,36,36V314h51V186.2
		c0-4.4,3.6-8,8-8c4.4,0,8,3.6,8,8v136C264.5,326.7,260.8,330,256.4,330z"/>
</g>
</svg>
