<?xml version="1.0" encoding="utf-8"?>
<!-- Generator: Adobe Illustrator 22.0.1, SVG Export Plug-In . SVG Version: 6.00 Build 0)  -->
<svg version="1.1" id="Capa_1" xmlns="http://www.w3.org/2000/svg" xmlns:xlink="http://www.w3.org/1999/xlink" x="0px" y="0px"
	 viewBox="0 0 52 52" style="enable-background:new 0 0 52 52;" xml:space="preserve">
<style type="text/css">
	.st0{fill:#FF00FF;}
	.st1{fill:#905793;}
	.st2{fill:#BA06BF;}
	.st3{fill:#664068;}
	.st4{fill:#FC85FF;}
</style>
<g>
	<g>
		<g>
			<g>
				<path class="st0" d="M18.5,26.4v-3.8h2.3v3.7c0,1.1,0.4,1.5,1.1,1.5c0.7,0,1.1-0.4,1.1-1.5v-3.7h2.3v3.8c0,2.1-1.2,3.3-3.4,3.3
					C19.8,29.6,18.5,28.4,18.5,26.4z"/>
				<path class="st0" d="M31.2,29.5L30,27.6l-1.2,1.9h-2.7l2.5-3.5l-2.4-3.4h2.6l1.2,1.7l1.1-1.7h2.5l-2.4,3.4l2.6,3.6H31.2z"/>
			</g>
		</g>
	</g>
	<g>
		<path class="st1" d="M42.6,25.8L42.6,25.8h9.2l0,0c0-6.9-2.7-13.4-7.6-18.3c-4.9-4.9-11.4-7.6-18.3-7.6v9.2
			C35.2,9.1,42.6,16.6,42.6,25.8z"/>
		<path class="st2" d="M42.6,25.8c0,9.2-7.5,16.7-16.7,16.7v9.2c6.9,0,13.4-2.7,18.3-7.6c4.9-4.9,7.6-11.4,7.6-18.3H42.6L42.6,25.8z
			"/>
		<path class="st3" d="M9.2,25.8H0c0,6.9,2.7,13.4,7.6,18.3c4.9,4.9,11.4,7.6,18.3,7.6v-9.2C16.7,42.5,9.2,35,9.2,25.8z"/>
		<path class="st4" d="M9.2,25.8c0-9.2,7.5-16.7,16.7-16.7v-9.2C19-0.2,12.5,2.5,7.6,7.4C2.7,12.3,0,18.9,0,25.8l0,0H9.2L9.2,25.8z"
			/>
	</g>
</g>
</svg>
