<svg id="Capa_1" data-name="Capa 1" xmlns="http://www.w3.org/2000/svg" viewBox="0 0 48.76 30.5"><defs><style>.cls-1{fill:#f96;}</style></defs><path class="cls-1" d="M2.08,29V10.33H6V29.05c0,6.16,2.69,8.4,6.25,8.4s6.35-2.24,6.35-8.4V10.33h3.7V29c0,8.58-4.2,11.87-10,11.87S2.08,37.54,2.08,29Z" transform="translate(-2.08 -10.33)"/><path class="cls-1" d="M37.23,24.8,28.88,10.33h4.24L37.32,18c.78,1.37,1.46,2.61,2.42,4.39h.18c.82-1.78,1.42-3,2.15-4.39l4.11-7.62h4.06L41.89,25l8.94,15.29H46.54l-4.47-8c-.82-1.51-1.65-3-2.65-4.84h-.18c-.87,1.82-1.65,3.33-2.42,4.84l-4.48,8H28.28Z" transform="translate(-2.08 -10.33)"/></svg>