<?xml version="1.0" encoding="utf-8"?>
<!-- Generator: Adobe Illustrator 22.0.1, SVG Export Plug-In . SVG Version: 6.00 Build 0)  -->
<svg version="1.1" id="Capa_1" xmlns="http://www.w3.org/2000/svg" xmlns:xlink="http://www.w3.org/1999/xlink" x="0px" y="0px"
	 viewBox="0 0 52 52" style="enable-background:new 0 0 52 52;" xml:space="preserve">
<style type="text/css">
	.st0{fill:#FF00FF;}
	.st1{fill:#905793;}
	.st2{fill:#BA06BF;}
	.st3{fill:#664068;}
	.st4{fill:#FC85FF;}
</style>
<g>
	<g>
		<g>
			<g>
				<path class="st0" d="M15.5,26.5v-5.3h3.2v5.2c0,1.5,0.6,2.1,1.5,2.1c1,0,1.5-0.6,1.5-2.1v-5.2H25v5.3c0,2.9-1.7,4.6-4.7,4.6
					C17.3,31,15.5,29.3,15.5,26.5z"/>
				<path class="st0" d="M33.2,30.8l-1.7-2.7l-1.7,2.7h-3.8l3.5-4.9l-3.4-4.7h3.6l1.7,2.4l1.5-2.4h3.5l-3.4,4.7l3.6,5h-3.6V30.8z"/>
			</g>
		</g>
	</g>
	<g>
		<path class="st1" d="M42.6,25.8L42.6,25.8h9.2l0,0c0-6.9-2.7-13.4-7.6-18.3S32.8-0.1,25.9-0.1v9.2C35.2,9.1,42.6,16.6,42.6,25.8z"
			/>
		<path class="st2" d="M42.6,25.8c0,9.2-7.5,16.7-16.7,16.7v9.2c6.9,0,13.4-2.7,18.3-7.6s7.6-11.4,7.6-18.3L42.6,25.8L42.6,25.8z"/>
		<path class="st3" d="M9.2,25.8H0c0,6.9,2.7,13.4,7.6,18.3s11.4,7.6,18.3,7.6v-9.2C16.7,42.5,9.2,35,9.2,25.8z"/>
		<path class="st4" d="M9.2,25.8c0-9.2,7.5-16.7,16.7-16.7v-9.2C19-0.2,12.5,2.5,7.6,7.4S0,18.9,0,25.8l0,0H9.2L9.2,25.8z"/>
	</g>
</g>
</svg>
