<?xml version="1.0" encoding="utf-8"?>
<!-- Generator: Adobe Illustrator 22.0.1, SVG Export Plug-In . SVG Version: 6.00 Build 0)  -->
<svg version="1.1" id="Capa_1" xmlns="http://www.w3.org/2000/svg" xmlns:xlink="http://www.w3.org/1999/xlink" x="0px" y="0px"
	 viewBox="0 0 65.5 56" style="enable-background:new 0 0 65.5 56;" xml:space="preserve">
<style type="text/css">
	.st0{fill:#42B783;}
	.st1{fill:#354A5E;}
</style>
<g>
	<path class="st0" d="M40,1.1c0.1-0.4,0.4-0.2,0.6-0.2c7.8,0,15.6,0,23.4,0c0.5,0,0.8,0,0.4,0.6c-1.5,2.5-2.9,5-4.3,7.5
		c-0.7,1.2-1.6,2.3-2.1,3.6c-0.4,1-1,1.9-1.6,2.8c-0.9,1.4-1.7,2.9-2.5,4.4c-0.6,1.2-1.5,2.3-2.1,3.4c-0.8,1.5-1.6,3.1-2.5,4.5
		c-0.5,0.8-1,1.5-1.4,2.3c-0.6,1.1-1.2,2.3-1.9,3.4c-0.8,1.1-1.3,2.3-2.1,3.4c-0.4,0.6-0.7,1.4-1,2c-0.3,0.6-0.8,1.2-1.1,1.8
		c-1,1.8-2,3.7-3.1,5.4c-1.1,1.8-2.1,3.7-3.2,5.5c-0.8,1.4-1.8,2.6-2.4,4.2c0,0.1-0.2,0.3-0.4,0.3c-0.1,0-0.3-0.2-0.3-0.3
		c-0.3-1.1-1.2-1.9-1.7-3c-0.9-1.7-1.8-3.4-2.9-5.1c-1.2-1.9-2.2-3.9-3.4-5.9c-0.7-1.2-1.5-2.3-2.1-3.5c-0.4-0.7-0.7-1.5-1.2-2.2
		c-1.1-1.6-2-3.3-2.9-5c-0.6-1.2-1.5-2.2-2.1-3.5c-0.8-1.6-1.8-3-2.6-4.6c-0.4-0.8-0.9-1.4-1.3-2.2c-0.6-1.1-1.2-2.2-1.9-3.2
		c-0.8-1.4-1.7-2.9-2.5-4.3C7.4,12.6,7,11.8,6.5,11C5.1,9,4.2,6.7,2.8,4.6C2.2,3.6,1.6,2.4,0.9,1.4C0.7,1,0.8,0.9,1.2,0.9
		c0.1,0,0.2,0,0.4,0c7.7,0,15.4,0,23.1,0c0.2,0,0.6-0.2,0.7,0.2c-3.9,0-7.8,0-11.7,0c0,0.1,0,0.1-0.1,0.2c0.5,0.2,0.5,0.7,0.7,1.1
		c0.7,1.2,1.4,2.4,2,3.6c0.6,1.2,1.6,2.3,2.2,3.6c0.9,1.8,2,3.4,3,5.1c1.4,2.7,3.1,5.1,4.5,7.8c0.9,1.7,2,3.3,2.9,5.1
		c1,1.9,2.2,3.7,3.3,5.6c0.4,0.7,0.9,0.7,1.2,0c0.5-1,1-1.9,1.6-2.8c1.3-2,2.2-4.2,3.6-6.2c1.3-1.9,2.3-4.1,3.5-6
		c1.3-2.1,2.4-4.4,3.7-6.6c0.5-0.9,1-1.8,1.5-2.7c0.6-1.2,1.4-2.4,2.1-3.5c0.8-1.4,1.6-2.8,2.4-4.2C47.8,1.1,43.9,1.1,40,1.1z"/>
	<path class="st1" d="M40,1.1c3.9,0,7.8,0,11.8,0c-0.9,1.5-1.6,2.9-2.4,4.2c-0.7,1.2-1.5,2.3-2.1,3.5c-0.5,0.9-0.9,1.8-1.5,2.7
		c-1.3,2.1-2.4,4.4-3.7,6.6c-1.3,2-2.2,4.1-3.5,6c-1.3,2-2.3,4.2-3.6,6.2c-0.6,0.9-1.1,1.8-1.6,2.8c-0.4,0.7-0.9,0.7-1.2,0
		c-1.1-1.9-2.3-3.7-3.3-5.6c-0.9-1.7-2-3.3-2.9-5.1c-1.4-2.7-3.1-5.2-4.5-7.8c-0.9-1.7-2.1-3.3-3-5.1c-0.6-1.3-1.5-2.3-2.2-3.6
		c-0.6-1.2-1.3-2.4-2-3.6c-0.2-0.4-0.2-0.9-0.7-1.1c0-0.1,0-0.1,0.1-0.2c3.9,0,7.8,0,11.7,0c0.7,0.9,1,2,1.7,2.9
		c0.8,1.1,1.3,2.3,2,3.5c0.7,1.1,1.2,2.2,1.9,3.3c0.5,0.8,1,1.5,1.4,2.3c0,0.1,0.2,0.4,0.4,0.3c0.1,0,0.3-0.2,0.3-0.3
		c0.5-1.3,1.3-2.4,2-3.5c1.1-1.8,1.9-3.6,3-5.4C38.8,3.2,39.3,2,40,1.1z"/>
</g>
</svg>
