<?xml version="1.0" encoding="utf-8"?>
<!-- Generator: Adobe Illustrator 22.0.1, SVG Export Plug-In . SVG Version: 6.00 Build 0)  -->
<svg version="1.1" id="圖層_1" xmlns="http://www.w3.org/2000/svg" xmlns:xlink="http://www.w3.org/1999/xlink" x="0px" y="0px"
	 viewBox="0 0 479.9 392.3" style="enable-background:new 0 0 479.9 392.3;" xml:space="preserve">
<style type="text/css">
	.st0{fill:#33CC99;}
</style>
<g>
	<g>
		<path class="st0" d="M272.3,146.7l-3.4,2.4h-42.1l-69-103.8h-24.9l7.3-11h62.6l71.5,109.3L272.3,146.7z M232.7,138h25l-60.8-92.9
			h-26L232.7,138z"/>
		<polygon class="st0" points="272.4,149 221.3,149 296.5,34.2 366.4,34.2 359.1,45.2 302.3,45.2 241.6,138 266.6,138 315.8,64.1 
			328.9,64.1 		"/>
		<path class="st0" d="M204.5,252.9h-72.8l7.3-11h20.4l69-103.8h51.1L204.5,252.9z M172.6,241.9h26.1l60.7-92.9h-25L172.6,241.9z"/>
	</g>
	<g>
		<path class="st0" d="M71.1,286.1l-17,33.6v18.6H42.4V320l-16.6-33.8h13.4c0,0,9,21.2,9.6,23.7H49c0.3-1.7,9.7-23.7,9.7-23.7h12.4
			V286.1z"/>
		<path class="st0" d="M112.3,339.2c-7.5,0-13.6-2.4-18.3-7.3s-7.1-11.2-7.1-19c0-8.2,2.4-14.9,7.2-20s11.1-7.6,19-7.6
			c7.4,0,13.5,2.4,18.1,7.3c4.6,4.9,6.9,11.3,6.9,19.3c0,8.2-2.4,14.8-7.2,19.8C126.1,336.6,119.9,339.2,112.3,339.2z M112.8,295.3
			c-4.1,0-7.4,1.5-9.8,4.6c-2.4,3.1-3.6,7.2-3.6,12.3c0,5.2,1.2,9.3,3.6,12.3c2.4,3,5.6,4.5,9.5,4.5c4,0,7.3-1.5,9.6-4.4
			c2.4-2.9,3.6-7,3.6-12.2c0-5.4-1.2-9.6-3.5-12.6C119.9,296.8,116.8,295.3,112.8,295.3z"/>
		<path class="st0" d="M204.1,315.7c0,15.7-7.3,23.5-21.9,23.5c-14.2,0-21.2-7.7-21.2-23v-30.1h11.8v30.3c0,8.4,3.3,12.7,9.9,12.7
			c6.5,0,9.7-4.1,9.7-12.2v-30.7l11.7,8L204.1,315.7L204.1,315.7z"/>
		<path class="st0" d="M273,338.2h-13.9c0,0-9.7-18.8-10-20.5H249c-0.2,0.8-10.2,20.5-10.2,20.5h-14l16.6-26.1L226.2,286h14.3
			c0,0,8.6,18.3,9,20h0.1c0.3-1,9.9-20,9.9-20h13.1L257,311.9L273,338.2z"/>
		<path class="st0" d="M305.9,338.2h-11.7V286l11.7,7.4V338.2z"/>
		<path class="st0" d="M379.6,338.2h-11.9l-21.5-32.7c-1.3-1.9-2.1-3.4-2.6-4.3h-0.2c0.2,1.8,0.3,4.7,0.3,8.4v28.7h-11.1v-52.2h12.7
			l20.7,31.8c1,1.4,1.8,2.8,2.6,4.3h0.1c-0.2-1.2-0.3-3.6-0.3-7.2v-28.8l11.1,7.1L379.6,338.2L379.6,338.2z"/>
		<path class="st0" d="M449.2,334.7c-5.1,2.9-11.4,4.4-19,4.4c-8.4,0-15-2.3-19.8-7c-4.8-4.6-7.3-11-7.3-19.2s2.6-14.9,7.9-20
			c5.3-5.2,12.3-7.7,21.1-7.7c5.5,0,10.4,0.8,14.6,2.3v11c-4-2.3-8.9-3.5-14.8-3.5c-4.9,0-8.8,1.6-11.9,4.7
			c-3.1,3.2-4.6,7.4-4.6,12.7c0,5.4,1.4,9.5,4.1,12.4c2.8,2.9,6.5,4.4,11.2,4.4c2.8,0,5-0.4,6.7-1.2v-10.2H427l6.3-9.4h15.9V334.7z"
			/>
	</g>
	<path class="st0" d="M270.7,255.6l6.7-44.8l-28.5-9.3l31.3-11.4l4.3-33.6l16.9,25.8l29.8-11L313,200.8l28.7,44.4l-43.5-23.5
		L270.7,255.6z M275.8,201.1l11.4,3.7l-3.1,20.3l11.9-14.6l19.5,10.6l-13-20.2l7.7-12.5l-12.4,4.6l-7.6-11.7l-2,15.2L275.8,201.1z"
		/>
</g>
</svg>
